' 7.2 Composite state, PlantUML Language Reference Guide (V8037, p. 83)
@startuml
scale 350 width
[*] --> NotShooting

state NotShooting {
    [*] --> Idle
    Idle --> Configuring : EvConfig
    Configuring --> Idle : EvConfig
}

state Configuring {
    [*] --> NewValueSelection
    NewValueSelection --> NewValuePreview : EvNewValue
    NewValuePreview --> NewValueSelection : EvNewValueRejected
    NewValuePreview --> NewValueSelection : EvNewValueSaved

    state NewValuePreview {
        State1 -> State2
    }
}
@enduml
