' 7.7 More in notes, PlantUML Language Reference Guide (V8037, p. 88)
@startuml

[*] --> NotShooting
state "Not Shooting State" as NotShooting {
    state "Idle mode" as Idle
    state "Configuring mode" as Configuring
    [*] --> Idle
    Idle --> Configuring : EvConfig
    Configuring --> Idle : EvConfig
}

note right of NotShooting : This is a note on a composite state

@enduml
